<svg xmlns="http://www.w3.org/2000/svg" viewBox="0 0 32 32" width="32" height="32" fill="none">
  <defs>
    <linearGradient id="q" gradientUnits="userSpaceOnUse" x1="4" y1="31" x2="24" y2="6">
      <stop offset="0" stop-color="#7A6BE0"/>
      <stop offset="0.3" stop-color="#5A8BF2"/>
      <stop offset="0.55" stop-color="#55C4C8"/>
      <stop offset="0.78" stop-color="#93DDA6"/>
      <stop offset="1" stop-color="#D3EFAE"/>
    </linearGradient>
    <linearGradient id="s" x1="1" y1="0" x2="0" y2="1">
      <stop offset="0" stop-color="#CDEFA6"/>
      <stop offset="1" stop-color="#6FD3AC"/>
    </linearGradient>
    <linearGradient id="w" x1="0" y1="0.5" x2="1" y2="0.5">
      <stop offset="0" stop-color="#5B8DEF" stop-opacity="0"/>
      <stop offset="0.3" stop-color="#5B8DEF"/>
      <stop offset="1" stop-color="#7FD4E8"/>
    </linearGradient>
  </defs>
  <path d="M10.6 24.1C9.3 25.8 7.3 28.1 5.6 30.3" stroke="url(#q)" stroke-width="1.15" stroke-linecap="round"/>
  <path d="M23 8C21.74 16.83 16.94 22.83 9.46 26.69L7.74 25.31C10.8 17.92 15.6 11.92 23 8Z" fill="url(#q)"/>
  <path d="M23 8 8.5 26" stroke="rgba(255,255,255,0.42)" stroke-width="0.7" stroke-linecap="round"/>
  <g stroke="url(#s)" stroke-width="1.6" stroke-linecap="round">
    <path d="M31 4.6A3 3 0 0 1 28 1.6"/>
    <path d="M31 6.6A5 5 0 0 1 26 1.6"/>
    <path d="M31 8.6A7 7 0 0 1 24 1.6"/>
  </g>
  <path d="M9 30.4C12.6 31.7 16.4 31.2 19.6 29.5C21.8 28.3 24.3 27.4 27.4 25.8" stroke="url(#w)" stroke-width="2" stroke-linecap="round"/>
</svg>
